<?xml version="1.0" standalone="no"?><!DOCTYPE svg PUBLIC "-//W3C//DTD SVG 1.1//EN" "http://www.w3.org/Graphics/SVG/1.1/DTD/svg11.dtd"><svg t="1588648363605" class="icon" viewBox="0 0 1024 1024" version="1.1" xmlns="http://www.w3.org/2000/svg" p-id="3105" xmlns:xlink="http://www.w3.org/1999/xlink" width="200" height="200"><defs><style type="text/css"></style></defs><path d="M945.1 781.3c-15.7-11.7-37.8-8.4-49.5 7.3-0.4 0.5-34 43.3-99.2 52.9l126-318.3c3.6-9 3.3-19.1-0.8-27.9-4-8.8-11.5-15.5-20.7-18.7l-370-126.5c-1-0.3-2-0.4-3-0.6-1.4-0.4-2.9-0.8-4.3-0.9-1.4-0.2-2.8-0.1-4.2-0.1-1.4 0-2.7 0-4.1 0.1-1.5 0.2-2.9 0.6-4.4 0.9-1 0.2-2 0.3-2.9 0.6L138 476.6c-9.2 3.1-16.6 9.9-20.7 18.7-4.1 8.8-4.3 18.9-0.8 27.9l120.4 304.1c-67.6-10.9-110.7-53-111.9-54.3-13.7-13.9-36-14.2-50-0.6s-14.3 36.1-0.7 50.1c3.1 3.1 76.1 76.8 191.4 78.1 57.1 0.8 100.9-11 139.3-21.3 33.8-9.1 62.9-16.9 96.2-15 38.7 2.2 74.1 12.1 111.6 22.7 47.5 13.3 96.6 27.2 157.4 27.2 118.9 0 179.7-80 182.3-83.4 11.5-15.6 8.2-37.8-7.4-49.5zM698.5 137.6c0-19.5-15.9-35.4-35.4-35.4H375.6c-19.5 0-35.4 15.9-35.4 35.4v47.2h358.3v-47.2z" p-id="3106"></path><path d="M510.8 310.4c1.5-0.4 2.9-0.8 4.4-0.9 1.4-0.2 2.7-0.1 4.1-0.1 1.4 0 2.8-0.1 4.2 0.1 1.5 0.2 2.9 0.6 4.3 0.9 1 0.2 2 0.3 3 0.6l290.3 99.2v-158c0-19.5-15.9-35.4-35.4-35.4H253c-19.5 0-35.4 15.9-35.4 35.4v158L507.9 311c1-0.3 2-0.3 2.9-0.6z" p-id="3107"></path></svg>