<?xml version="1.0" standalone="no"?><!DOCTYPE svg PUBLIC "-//W3C//DTD SVG 1.1//EN" "http://www.w3.org/Graphics/SVG/1.1/DTD/svg11.dtd"><svg t="1586485595006" class="icon" viewBox="0 0 1024 1024" version="1.1" xmlns="http://www.w3.org/2000/svg" p-id="12356" xmlns:xlink="http://www.w3.org/1999/xlink" width="200" height="200"><defs><style type="text/css"></style></defs><path d="M816.7 839H207.4c-78.8 0-142.9-64.1-142.9-142.9V327.6c0-78.8 64.1-142.9 142.9-142.9h81.1c13.8 0 25 11.2 25 25s-11.2 25-25 25h-81.1c-51.2 0-92.9 41.7-92.9 92.9v368.5c0 51.2 41.7 92.9 92.9 92.9h609.2c51.2 0 92.9-41.7 92.9-92.9V327.6c0-51.2-41.7-92.9-92.9-92.9H421.2c-13.8 0-25-11.2-25-25s11.2-25 25-25h395.5c78.8 0 142.9 64.1 142.9 142.9v368.5c0 78.8-64.1 142.9-142.9 142.9z" p-id="12357"></path><path d="M926.1 422.3H109.6c-13.8 0-25-11.2-25-25s11.2-25 25-25h816.5c13.8 0 25 11.2 25 25s-11.2 25-25 25zM823.6 555H581.2c-13.8 0-25-11.2-25-25s11.2-25 25-25h242.4c13.8 0 25 11.2 25 25s-11.2 25-25 25z" p-id="12358"></path></svg>